# xmcd
#
# Track frame offsets:
#	150
#	20883
#	40857
#	64867
#	85235
#	101361
#	115519
#	127707
#	142897
#	168165
#	184537
#	208233
#	227276
#	245393
#	266806
#	279568
#	295446
#
# Disc length: 4111 seconds
#
# Revision: 1
# Processed by: cddbd v1.5.2PL0 Copyright (c) Steve Scherf et al.
# Submitted via: audiograbber 1.83.01
#
DISCID=e8100d11
DTITLE=Frau Freitag - Für mich ist auch 6. Stunde CD01
DYEAR=2018
DGENRE=Hörbuch
TTITLE0=101
TTITLE1=102
TTITLE2=103
TTITLE3=104
TTITLE4=105
TTITLE5=106
TTITLE6=104
TTITLE7=108
TTITLE8=109
TTITLE9=110
TTITLE10=111
TTITLE11=112
TTITLE12=113
TTITLE13=114
TTITLE14=115
TTITLE15=116
TTITLE16=117
EXTD=
EXTT0=
EXTT1=
EXTT2=
EXTT3=
EXTT4=
EXTT5=
EXTT6=
EXTT7=
EXTT8=
EXTT9=
EXTT10=
EXTT11=
EXTT12=
EXTT13=
EXTT14=
EXTT15=
EXTT16=
PLAYORDER=
